<svg width="287" height="64" viewBox="0 0 287 64" fill="none" xmlns="http://www.w3.org/2000/svg">
<g clip-path="url(#clip0_179_4)">
<path d="M31.9746 64C49.6336 64 63.9491 49.6731 63.9491 32C63.9491 14.3269 49.6336 0 31.9746 0C14.3155 0 0 14.3269 0 32C0 49.6731 14.3155 64 31.9746 64Z" fill="#252323"/>
<path d="M36.7859 26.0739V21.6166H32.8947V27.883C31.9697 26.717 30.6311 26.0983 28.9746 26.0983C25.7148 26.0983 23.4024 28.6775 23.4024 32.574C23.4024 36.4705 25.7393 39.0497 28.9968 39.0497C29.824 39.0497 30.5711 38.8872 31.227 38.5757C31.883 38.2641 32.4433 37.8079 32.8924 37.2227C32.8924 38.0171 33.5351 38.6602 34.3244 38.6602H36.7836V34.2029C36.7836 32.8433 36.5302 31.6305 36.1344 30.8116C35.9343 30.3999 35.9343 29.8792 36.1344 29.4652C36.5302 28.6463 36.7836 27.4335 36.7836 26.0739H36.7859ZM30.2664 35.7607C28.5632 35.7607 27.4181 34.4967 27.4181 32.5718C27.4181 30.6469 28.5632 29.3829 30.2664 29.3829C31.9697 29.3829 33.1104 30.6469 33.1104 32.5718C33.1104 34.4967 31.9675 35.7607 30.2664 35.7607Z" fill="#FEFEFE"/>
<path d="M46.4249 26.1028C45.5355 26.1028 44.7462 26.2987 44.0635 26.6569C43.3853 27.0152 42.8139 27.5359 42.3603 28.1946C42.3603 27.2555 41.5998 26.49 40.6571 26.49H38.4669V30.9473C38.4669 32.307 38.7204 33.5198 39.1161 34.3387C39.3163 34.7504 39.3163 35.2711 39.1161 35.685C38.7204 36.504 38.4669 37.7167 38.4669 39.0764V43.5337H42.3581V36.6197C43.2608 37.9816 44.6683 39.0809 46.4472 39.0809C49.7069 39.0809 52.0661 36.475 52.0661 32.5785C52.0661 28.682 49.6846 26.1028 46.4249 26.1028ZM45.2087 35.7941C43.5054 35.7941 42.3603 34.5034 42.3603 32.5785C42.3603 30.6536 43.5054 29.3896 45.2087 29.3896C46.9119 29.3896 48.0526 30.6536 48.0526 32.5785C48.0526 34.5034 46.9097 35.7941 45.2087 35.7941Z" fill="#FEFEFE"/>
<path d="M20.5182 35.516C19.3997 35.516 19.0484 34.7171 19.0484 33.9627V29.7635H22.0591C22.4282 28.4662 23.0575 27.3513 23.8935 26.4768H19.0484V23.0921H16.8716C15.9221 23.0921 15.155 23.8598 15.155 24.81V26.4768H12.6468V29.7635H15.155V34.4122C15.155 36.2147 15.5908 39.0386 19.6799 39.0386C19.8222 39.0386 19.9601 39.0342 20.0957 39.0275C20.2313 39.0208 20.3603 39.0097 20.487 38.9964C21.7278 38.8829 22.7284 38.509 23.4444 38.0795C22.8062 37.2628 22.3215 36.2882 22.0235 35.1933C21.5366 35.3736 21.0029 35.5137 20.5182 35.5137V35.516Z" fill="#FEFEFE"/>
<path d="M104.292 28.0011C103.067 28.0412 102.258 28.6999 101.953 29.9728H101.762C102.078 28.6598 102.932 27.9989 104.221 27.9989C104.246 27.9989 104.27 27.9989 104.295 27.9989L104.292 28.0011Z" fill="#252323"/>
<path d="M244.064 19.4583C242.821 19.4583 241.871 20.4085 241.871 21.648C241.871 22.8875 242.821 23.8421 244.064 23.8421C245.307 23.8421 246.252 22.8919 246.252 21.648C246.252 20.404 245.305 19.4583 244.064 19.4583Z" fill="#252323"/>
<path d="M222.688 24.7966C221.027 24.7966 219.781 25.7001 219.194 27.191V25.186H215.285V37.4141H219.194V31.3479C219.194 29.3674 220.001 28.0967 221.075 28.0967C221.834 28.0967 222.296 28.7087 222.296 29.6389C222.296 30.371 222.296 29.5766 222.296 30.529H225.216C225.705 30.529 225.949 29.9794 225.949 28.8801C225.949 26.361 224.838 24.7966 222.685 24.7966H222.688Z" fill="#252323"/>
<path d="M269.057 34.5346C267.467 34.5346 266.393 33.2862 266.393 31.3057C266.393 29.3252 267.42 28.128 269.081 28.128C270.742 28.128 271.232 28.8668 271.232 30.1842H274.847C274.847 24.8256 271.06 24.8256 269.057 24.8256C264.999 24.8256 262.362 27.3914 262.362 31.3302C262.362 35.269 265.024 37.8326 269.008 37.8326C272.403 37.8326 274.727 35.9744 275.459 33.1371H271.232C270.767 33.9939 270.082 34.5324 269.057 34.5324V34.5346Z" fill="#252323"/>
<path d="M92.2631 24.8345C90.4131 24.8345 89.0745 25.7602 88.4897 27.2467V20.3527H84.5963V37.403H88.4897V31.3613C88.4897 29.3407 89.4392 27.9766 90.7533 27.9766C91.7762 27.9766 92.3832 28.8067 92.3832 30.0706V37.403H96.2766V30.0706C96.2766 26.7104 94.8891 24.8345 92.2609 24.8345H92.2631Z" fill="#252323"/>
<path d="M106.651 33.3576C106.285 34.1142 105.555 34.5037 104.532 34.5037C103 34.5037 102.149 33.6491 101.904 32.1648H110.3C111.71 28.2683 108.962 24.8324 104.41 24.8324C100.468 24.8324 97.8151 27.4138 97.8151 31.3125C97.8151 35.2113 100.419 37.7904 104.435 37.7904C107.77 37.7904 110.129 36.0369 110.858 33.3576H106.649H106.651ZM104.343 28.0013C104.363 28.0013 104.388 28.0013 104.41 28.0013C105.871 28.0013 106.6 28.8068 106.48 29.9751H101.951C102.258 28.7023 103.067 28.0436 104.29 28.0035C104.308 28.0035 104.326 28.0035 104.341 28.0035L104.343 28.0013Z" fill="#252323"/>
<path d="M233.592 24.8456C229.625 24.8456 226.972 27.4292 226.972 31.3257C226.972 35.2223 229.625 37.8036 233.592 37.8036C237.558 37.8036 240.211 35.2245 240.211 31.3257C240.211 27.427 237.558 24.8456 233.592 24.8456ZM233.592 34.5168C232.033 34.5168 230.988 33.2484 230.988 31.3257C230.988 29.4031 232.035 28.1369 233.592 28.1369C235.148 28.1369 236.195 29.3786 236.195 31.3257C236.195 33.2729 235.148 34.5168 233.592 34.5168Z" fill="#252323"/>
<path d="M256.67 33.3707C256.305 34.1273 255.576 34.5168 254.553 34.5168C253.021 34.5168 252.169 33.6622 251.925 32.178H260.321C261.731 28.2814 258.982 24.8456 254.431 24.8456C250.486 24.8456 247.836 27.4291 247.836 31.3257C247.836 35.2222 250.44 37.8036 254.453 37.8036C257.791 37.8036 260.15 36.05 260.879 33.3707H256.668H256.67ZM254.431 28.0144C255.892 28.0144 256.621 28.8177 256.501 29.986H251.972C252.287 28.6731 253.141 28.0144 254.431 28.0144Z" fill="#252323"/>
<path d="M141.459 33.373C141.092 34.1296 140.363 34.5191 139.34 34.5191C137.808 34.5191 136.956 33.6668 136.712 32.1803H145.108C146.518 28.2837 143.769 24.8501 139.218 24.8501C135.273 24.8501 132.623 27.4314 132.623 31.3302C132.623 35.2289 135.226 37.8081 139.242 37.8081C142.577 37.8081 144.937 36.0545 145.666 33.3753H141.457L141.459 33.373ZM138.835 28.0145C138.902 28.0145 138.966 28.0145 139.031 28.0211H139.038C139.098 28.0167 139.158 28.0145 139.22 28.0145C140.681 28.0145 141.41 28.82 141.29 29.9883H136.378C136.694 28.6732 137.548 28.0145 138.837 28.0145H138.835Z" fill="#252323"/>
<path d="M139.031 28.0189C137.846 28.0812 137.061 28.7355 136.761 29.9861H136.378C136.694 28.6709 137.548 28.0122 138.837 28.0122C138.904 28.0122 138.969 28.0122 139.033 28.0189H139.031Z" fill="#252323"/>
<path d="M151.174 28.7933C151.174 28.3305 151.658 27.8698 152.755 27.8698C154.022 27.8698 154.727 28.5018 154.507 29.501H158.305C158.718 26.4545 156.114 24.8478 152.732 24.8478C149.35 24.8478 147.158 26.3566 147.158 28.9402C147.158 33.689 154.727 32.1803 154.727 33.8604C154.727 34.3967 153.949 34.8106 152.852 34.8106C151.563 34.8106 150.785 34.2498 150.785 33.373H147.013C147.013 36.0523 149.25 37.8058 152.877 37.8058C156.286 37.8058 158.743 36.2971 158.743 33.6401C158.743 28.9892 151.174 30.6225 151.174 28.7933Z" fill="#252323"/>
<path d="M164.393 25.2372H160.499V37.4164H164.393V25.2372Z" fill="#252323"/>
<path d="M162.469 19.4894C161.228 19.4894 160.279 20.4396 160.279 21.6813C160.279 22.923 161.228 23.8754 162.469 23.8754C163.71 23.8754 164.661 22.9252 164.661 21.6813C164.661 20.4373 163.712 19.4894 162.469 19.4894Z" fill="#252323"/>
<path d="M188.527 24.8478C186.701 24.8478 185.314 25.7736 184.707 27.3068C184.707 26.163 183.78 25.2373 182.639 25.2373H180.814V37.4164H184.707V31.3747C184.707 29.3541 185.656 27.99 186.971 27.99C188.6 27.99 188.6 29.452 188.6 30.3288V37.4164H192.494V30.3288C192.494 28.8423 192.494 24.8501 188.527 24.8501V24.8478Z" fill="#252323"/>
<path d="M130.993 24.9056V20.475H127.124V26.7059C126.201 25.5465 124.871 24.9301 123.226 24.9301C119.984 24.9301 117.687 27.4959 117.687 31.3679C117.687 35.24 120.013 37.8058 123.25 37.8058C124.073 37.8058 124.813 37.6455 125.467 37.334C126.119 37.0247 126.677 36.5707 127.124 35.9899C127.124 36.7799 127.762 37.4186 128.547 37.4186H130.993V32.988C130.993 31.635 130.739 30.4288 130.348 29.6166C130.15 29.2071 130.15 28.6886 130.348 28.277C130.741 27.4647 130.993 26.2564 130.993 24.9056ZM124.509 34.539C122.814 34.539 121.676 33.2817 121.676 31.3679C121.676 29.4542 122.814 28.1969 124.509 28.1969C126.203 28.1969 127.337 29.4542 127.337 31.3679C127.337 33.2817 126.201 34.539 124.509 34.539Z" fill="#252323"/>
<path d="M178.917 25.235H177.545C176.535 25.235 175.697 25.956 175.513 26.9085V26.8528C172.017 22.7894 165.918 25.2929 166.071 31.141C165.98 34.3989 168.119 37.4832 171.492 37.4119C173.053 37.403 174.456 36.78 175.473 35.645V38.805C175.437 40.287 174.216 41.2506 172.709 41.2506C171.119 41.2328 170.056 40.3983 169.891 39.0631H166.412C166.525 42.3922 168.98 44.5018 172.758 44.5418C176.124 44.5418 179.066 42.1852 178.901 39.0631C178.924 37.3252 178.917 27.1889 178.917 25.235ZM172.711 34.232C171.217 34.232 170.167 33.2284 169.987 31.6551C169.716 29.7257 170.879 28.0033 172.711 28.059C174.003 28.059 174.963 28.8089 175.315 30.0328C175.904 32.0534 174.826 34.2965 172.711 34.2342V34.232Z" fill="#252323"/>
<path d="M208.101 24.8545C207.218 24.8545 206.429 25.0504 205.751 25.4064C205.077 25.7602 204.508 26.2787 204.058 26.9352C204.058 26.0006 203.302 25.2417 202.364 25.2417H200.189V29.6723C200.189 31.0253 200.441 32.2314 200.834 33.0437C201.034 33.4531 201.034 33.9716 200.834 34.3833C200.441 35.1956 200.189 36.4039 200.189 37.7547V44.0367H204.058V35.3091C204.955 36.6643 206.355 37.7591 208.123 37.7591C211.363 37.7591 213.709 35.1666 213.709 31.2924C213.709 27.4181 211.341 24.8545 208.099 24.8545H208.101ZM206.891 34.4901C205.197 34.4901 204.058 33.2061 204.058 31.2924C204.058 29.3786 205.197 28.1213 206.891 28.1213C208.586 28.1213 209.72 29.3786 209.72 31.2924C209.72 33.2061 208.583 34.4901 206.891 34.4901Z" fill="#252323"/>
<path d="M79.3621 21.8281H77.183C76.2314 21.8281 75.4598 22.6003 75.4598 23.5527V25.2217H72.9494V28.5152H75.4598V33.1772C75.4598 34.9819 75.9001 37.8147 79.9958 37.8147C81.1409 37.8147 82.0192 37.5944 82.6285 37.205V33.8626C81.9703 34.2765 81.5078 34.5213 80.7763 34.5213C79.6556 34.5213 79.3621 33.936 79.3621 33.1794V28.5174H82.8975V25.2239H79.3621V21.8325V21.8281Z" fill="#252323"/>
<path d="M286.054 28.5152V25.2217H282.518V21.8303H280.339C279.388 21.8303 278.616 22.6025 278.616 23.5549V25.2239H276.106L275.376 25.235C276.132 26.074 276.617 27.1711 276.831 28.5196H278.618V33.1816C278.618 34.9864 279.059 37.8192 283.154 37.8192C284.299 37.8192 285.178 37.5989 285.787 37.2095V33.867C285.129 34.2809 284.666 34.5257 283.935 34.5257C282.814 34.5257 282.521 33.9405 282.521 33.1839V28.5218H286.056L286.054 28.5152Z" fill="#252323"/>
<path d="M242.343 25.2039V38.6759C242.317 39.7085 241.723 40.4962 240.849 40.8656C240.418 41.0481 239.508 41.1772 238.472 40.948V44.3282C238.844 44.3772 239.228 44.4083 239.631 44.4106C241.501 44.4106 243.237 43.6851 244.385 42.5057C245.247 41.5688 245.77 40.3605 245.77 39.0186C245.77 38.963 245.779 25.2061 245.779 25.2061H242.343V25.2039Z" fill="#252323"/>
</g>
<defs>
<clipPath id="clip0_179_4">
<rect width="286.046" height="63.9978" fill="white"/>
</clipPath>
</defs>
</svg>
